<svg id="Layer_1" enable-background="new 0 0 510 510" height="512" viewBox="0 0 510 510" width="512" xmlns="http://www.w3.org/2000/svg"><g id="XMLID_4208_"><path id="XMLID_4328_" d="m360 465v45h75l15-60-15-60c-41.4 0-75 33.6-75 75z" fill="#dd4e4e"/><path id="XMLID_4318_" d="m510 465c0-41.4-33.6-75-75-75v120h75c0-15 0-30 0-45z" fill="#c21456"/><path id="XMLID_4264_" d="m382.5 367.5c0 28.9 23.6 52.5 52.5 52.5l15-52.5-15-52.5c-28.9 0-52.5 23.6-52.5 52.5z" fill="#edbba7"/><path id="XMLID_4261_" d="m487.5 367.5c0-28.9-23.6-52.5-52.5-52.5v105c28.9 0 52.5-23.6 52.5-52.5z" fill="#e8a38b"/><path id="XMLID_4327_" d="m0 465v45h75l15-60-15-60c-41.4 0-75 33.6-75 75z" fill="#f4d844"/><path id="XMLID_4323_" d="m150 465c0-41.4-33.6-75-75-75v120h75c0-15 0-30 0-45z" fill="#ecbd2c"/><path id="XMLID_4297_" d="m22.5 367.5c0 28.9 23.5 52.5 52.5 52.5l15-52.5-15-52.5c-28.9 0-52.5 23.6-52.5 52.5z" fill="#edbba7"/><path id="XMLID_4273_" d="m127.5 367.5c0-28.9-23.6-52.5-52.5-52.5v105c28.9 0 52.5-23.6 52.5-52.5z" fill="#e8a38b"/><g id="XMLID_4190_"><path id="XMLID_4260_" d="m180 465v45h75l15-60-15-60c-41.4 0-75 33.6-75 75z" fill="#8493fb"/><path id="XMLID_4259_" d="m330 465c0-41.4-33.6-75-75-75v120h75c0-15 0-30 0-45z" fill="#6666fa"/><path id="XMLID_4258_" d="m202.5 367.5c0 28.9 23.6 52.5 52.5 52.5l15-52.5-15-52.5c-28.9 0-52.5 23.6-52.5 52.5z" fill="#edbba7"/><path id="XMLID_4257_" d="m307.5 367.5c0-28.9-23.6-52.5-52.5-52.5v105c28.9 0 52.5-23.6 52.5-52.5z" fill="#e8a38b"/></g><path id="XMLID_4254_" d="m0 0v240h91.5c6.7 6.7 48.2 48.2 54.9 54.9 6.7-6.7 48.2-48.2 54.9-54.9h53.8l15-120-15.1-120c-7.2 0-247.8 0-255 0z" fill="#bfe85f"/><path id="XMLID_4253_" d="m356.4 294.9c6.7-6.7 48.2-48.2 54.9-54.9h98.8c0-6.8 0-233.2 0-240-7.2 0-247.8 0-255 0v240h46.5c6.6 6.7 48.1 48.2 54.8 54.9z" fill="#00cb76"/><path id="XMLID_4252_" d="m60 75v30h195l15-15-15-15c-10.8 0-184.2 0-195 0z" fill="#f9f9f9"/><path id="XMLID_4219_" d="m60 135v30h195l15-15-15-15c-10.8 0-184.2 0-195 0z" fill="#f9f9f9"/><g fill="#e2dff4"><path id="XMLID_2_" d="m255 75v30h195c0-10.5 0-19.5 0-30-10.8 0-184.2 0-195 0z"/><path id="XMLID_1_" d="m255 135v30h195c0-10.5 0-19.5 0-30-10.8 0-184.2 0-195 0z"/></g></g></svg>